<?xml version="1.0" encoding="UTF-8" standalone="no"?>
<!-- Created with Inkscape (http://www.inkscape.org/) -->

<svg
   width="210mm"
   height="297mm"
   viewBox="0 0 210 297"
   version="1.1"
   id="svg1"
   xml:space="preserve"
   xmlns="http://www.w3.org/2000/svg"
   xmlns:svg="http://www.w3.org/2000/svg"><defs
     id="defs1" /><g
     id="layer1"><path
       style="fill:#000000"
       d="m 78.250144,268.48328 c -0.237823,-0.38806 -2.341721,-3.72181 -4.675329,-7.40833 -2.333609,-3.68653 -4.576411,-7.36614 -4.984006,-8.1769 l -0.741081,-1.47413 -3.181487,-0.11337 -3.181487,-0.11338 8.1e-4,8.90764 8.1e-4,8.90764 H 56.764122 52.03987 l -0.245857,-6.4382 c -0.135221,-3.54101 -0.19212,-14.43237 -0.126442,-24.20304 l 0.119414,-17.76484 10.936111,0.0161 c 12.255644,0.018 13.277838,0.18112 16.933333,2.70132 5.686584,3.92051 8.093013,12.90275 5.108487,19.06796 -1.001154,2.06811 -3.275034,4.57459 -5.143377,5.66952 -0.853935,0.50044 -1.55261,1.15736 -1.55261,1.45982 0,0.78437 2.173105,4.62385 4.942012,8.73163 2.914377,4.3236 6.346876,9.95856 6.346876,10.41935 0,0.378 -1.192819,0.46447 -6.836939,0.4956 -3.471629,0.0191 -3.879639,-0.0462 -4.270734,-0.68439 z M 72.98015,241.67529 c 2.178004,-1.2764 2.972112,-2.75897 2.972112,-5.54884 0,-1.78901 -0.17322,-2.54448 -0.794949,-3.46707 -1.484793,-2.20328 -2.619865,-2.57877 -8.539859,-2.82502 -2.918008,-0.12138 -5.328033,-0.20628 -5.355611,-0.18867 -0.02758,0.0176 0.03487,2.92922 0.13878,6.47023 l 0.188922,6.43819 h 4.945503 c 4.634022,0 5.039953,-0.0554 6.445102,-0.87882 z m -39.713997,8.95497 c 0,-16.61722 0.05358,-18.36163 0.558019,-18.16806 0.306911,0.11778 2.529411,0.21413 4.938889,0.21413 h 4.380869 v 18.16806 18.16806 h -4.938888 -4.938889 z m 110.645097,-3.57823 c 0.0558,-12.07823 0.10704,-22.99229 0.11388,-24.25347 l 0.0124,-2.29306 10.67193,0.18359 c 10.07808,0.17336 10.7846,0.22868 12.6966,0.99406 2.79013,1.11689 5.11084,2.78512 6.87363,4.94108 2.00551,2.45281 2.69442,4.89418 2.49437,8.83966 -0.22424,4.42272 -0.81133,5.38801 -5.57183,9.16103 -0.84632,0.67076 -0.85345,0.70822 -0.17639,0.92735 3.14859,1.01903 5.47932,2.7764 6.51231,4.91026 1.64685,3.40193 1.65368,8.63325 0.0155,11.84441 -1.34067,2.62793 -4.77914,4.92115 -8.99586,5.9996 -2.47061,0.63188 -3.913,0.70591 -13.75403,0.70591 h -10.99397 z m 22.86813,12.43542 c 1.70797,-0.86475 2.75178,-2.72055 2.55255,-4.53822 -0.22921,-2.09123 -1.18798,-3.25212 -3.45408,-4.1822 -1.67839,-0.68886 -2.55377,-0.78421 -7.28739,-0.79375 l -5.37986,-0.0108 v 5.13754 5.13755 l 6.26181,-0.11046 c 4.68975,-0.0827 6.52419,-0.24332 7.30697,-0.63963 z m -2.30497,-18.60958 c 1.86971,-0.95338 2.6179,-2.239 2.77353,-4.76575 0.11481,-1.8638 0.009,-2.38529 -0.68907,-3.40335 -1.74938,-2.55046 -2.8426,-2.92634 -9.06268,-3.11597 l -4.35746,-0.13284 0.12413,6.01772 0.12413,6.01772 4.93889,-3.6e-4 c 4.00511,-2.9e-4 5.16759,-0.11698 6.14853,-0.61717 z m -55.18464,27.25294 c -3.25528,-0.66894 -8.33128,-3.22101 -10.798289,-5.42907 -1.08835,-0.97412 -2.86534,-2.92928 -3.94884,-4.3448 -3.756649,-4.90775 -5.00437,-9.07553 -4.73094,-15.80283 0.193322,-4.75638 0.851894,-6.93004 3.27996,-10.82571 3.81475,-6.12052 9.933009,-10.39843 16.334379,-11.42106 2.13495,-0.34106 8.38271,-0.48758 9.56512,-0.22432 0.29104,0.0648 1.08479,0.24429 1.76389,0.39886 3.64233,0.82908 10.00111,5.07441 12.45278,8.3139 4.44472,5.87298 6.11697,12.28046 5.04566,19.33318 -0.9305,6.12576 -2.85115,9.77183 -7.44741,14.13782 -2.54803,2.42038 -4.81428,3.81558 -8.69895,5.35542 -2.47891,0.98261 -9.21075,1.24974 -12.81736,0.50861 z m 8.70819,-7.42121 c 3.35532,-0.70434 5.17555,-1.61066 7.49835,-3.73357 2.36568,-2.1621 3.94465,-4.59505 4.78637,-7.37505 2.52574,-8.34195 -0.30499,-15.91345 -7.48423,-20.01849 -6.99264,-3.99834 -14.49979,-3.22894 -20.56222,2.10743 -2.13448,1.87885 -3.146089,3.51372 -4.264919,6.8926 -0.80875,2.44246 -0.88097,3.07593 -0.67135,5.88874 0.31048,4.16619 1.25646,7.08686 3.111549,9.60682 2.54825,3.46156 5.50095,5.51213 9.40743,6.53322 2.89731,0.75731 4.92363,0.78166 8.17902,0.0983 z m -139.309311,-33.23691 -0.0733,-7.31997 3.76726,-3.35138 c 2.07199,-1.84327 5.91499,-5.1398 8.54001,-7.32563 2.62501,-2.18583 5.67898,-4.77074 6.7866,-5.74424 l 2.01384003,-1.77001 3.71966997,3.78789 c 2.62506,2.6732 3.663371,3.96532 3.528321,4.39082 -0.205931,0.64881 -4.926201,5.10023 -10.243201,9.65978 -1.81009,1.55222 -5.09957,4.4977 -7.30996,6.54551 -4.43538,4.10914 -9.72006,8.44764 -10.28967,8.44737 -0.23893,-1.2e-4 -0.39167,-2.54388 -0.43953,-7.32014 z m 54.224726,-2.71424 v -4.03733 l 4.674306,-0.10781 c 2.570867,-0.0593 4.872742,0.0307 5.115277,0.19997 0.304176,0.2123 0.440972,1.43176 0.440972,3.93101 0,2.97847 -0.0993,3.66133 -0.558019,3.83736 -0.306911,0.11777 -2.608786,0.21413 -5.115278,0.21413 h -4.557258 z m -54.348626,-10.83813 c -0.0115,-1.22885 -0.0558,-4.97437 -0.0985,-8.3234 -0.0722,-5.66714 -0.028,-6.14787 0.63821,-6.93676 1.28033,-1.51605 15.01188,-13.25605 15.50478,-13.25605 0.11227,0 0.20412,0.80045 0.20412,1.77876 0,2.90207 0.99391,7.04367 2.33989,9.75027 0.69286,1.39326 1.15262,2.70652 1.02169,2.91837 -0.13093,0.21185 -2.32991,2.13852 -4.88662,4.2815 -2.55671,2.14297 -6.76277,5.67158 -9.34679,7.84135 -2.58403,2.16977 -4.84622,3.99795 -5.02709,4.06262 -0.18087,0.0647 -0.33824,-0.88782 -0.34971,-2.11666 z m 92.793801,-3.74636 c -1.69826,-1.69826 -2.248049,-3.63784 -1.929707,-6.80775 0.216793,-2.15873 0.154251,-2.52333 -0.675783,-3.93968 -1.209976,-2.06467 -1.154284,-2.64588 0.414048,-4.32103 0.790341,-0.84417 1.5939,-2.23351 2.000053,-3.45806 0.373409,-1.12582 0.796953,-2.11989 0.941211,-2.20904 0.468119,-0.28932 1.636844,3.46221 2.218211,7.12031 0.776148,4.8837 0.78403,13.62554 0.01298,14.39659 -0.850963,0.85097 -1.525515,0.67416 -2.981013,-0.78134 z m -54.464483,-0.245 c -0.758468,-0.27027 -1.648702,-0.77924 -1.978298,-1.13104 -0.751412,-0.80204 -1.864755,-3.63825 -1.428179,-3.63825 0.178229,0 0.396654,0.27781 0.485387,0.61736 0.123483,0.47252 0.170934,0.43436 0.202256,-0.16265 0.02251,-0.429 -0.259405,-1.064 -0.626472,-1.41111 -0.69139,-0.65379 -2.154831,-5.30335 -2.154831,-6.84621 0,-1.22607 1.93505,-2.9541 8.791252,-7.85071 5.460534,-3.89985 15.400578,-11.72934 18.216714,-14.34879 2.578521,-2.39842 3.791298,-2.94665 5.770633,-2.60858 0.889479,0.15193 3.237064,0.24138 5.216856,0.19879 l 3.599621,-0.0774 1.750476,1.69258 c 2.129941,2.0595 2.551681,3.57109 1.652937,5.92442 -0.426571,1.11696 -1.084993,1.90825 -2.335171,2.80641 -0.957603,0.68797 -1.737,1.37018 -1.731995,1.51603 0.005,0.14584 0.633099,0.55275 1.395764,0.90425 2.602333,1.19936 3.87675,4.79665 2.58313,7.29138 -0.768067,1.48122 -2.383103,2.61597 -4.68252,3.29002 -0.939166,0.27531 -4.461164,2.1477 -7.826663,4.16087 -3.365499,2.01317 -6.436589,3.83213 -6.824645,4.04214 -7.786698,4.21396 -9.996273,5.10874 -14.287499,5.78578 -2.989316,0.47164 -4.114155,0.44147 -5.788753,-0.15526 z m 87.515603,0.28719 c -0.12935,-0.12935 -0.23519,-3.67907 -0.23519,-7.88826 0,-4.20919 -0.0956,-8.34992 -0.21233,-9.20162 l -0.21233,-1.54855 -4.197389,-0.10631 -4.19739,-0.10632 v 2.70123 c 0,2.40839 0.1014,2.82147 0.9354,3.81048 1.88714,2.23788 2.4653,5.34385 1.25772,6.75674 -1.87667,2.19575 -3.74091,2.78778 -5.65022,1.79437 -4.299067,-2.2368 -3.883763,-7.43988 0.72307,-9.05893 l 1.32292,-0.46494 v -2.71078 c 0,-2.49816 -0.0688,-2.75585 -0.87703,-3.28543 -1.78652,-1.17057 -2.477796,-3.4892 -0.95227,-3.19404 2.20669,0.42695 3.02346,0.48551 2.55241,0.18299 -0.41358,-0.2656 -0.4952,-1.26253 -0.42599,-5.20297 0.0993,-5.65523 0.19037,-6.10897 1.22596,-6.10964 0.75813,-4.9e-4 0.76832,0.0714 0.6626,4.67431 -0.0591,2.57114 -0.24436,5.18949 -0.41177,5.81856 -0.17121,0.64332 -0.17073,1.22636 10e-4,1.33256 0.16803,0.10385 1.62332,0.27018 3.23399,0.36963 1.610679,0.0994 3.444429,0.24387 4.075019,0.32095 l 1.14653,0.14013 -7.2e-4,-6.94518 c -8.7e-4,-8.32363 -0.43986,-25.89587 -0.62518,-25.02504 -0.0723,0.33954 -0.19912,0.61736 -0.28191,0.61736 -0.27942,0 -1.43755,-1.28448 -1.64458,-1.824 -0.12096,-0.3152 -1.08919,-0.72292 -2.354309,-0.99139 -1.18187,-0.25081 -2.14885,-0.59308 -2.14885,-0.7606 0,-0.16751 -0.42334,-0.30457 -0.94074,-0.30457 -0.51741,0 -0.83363,0.10711 -0.70272,0.23803 0.13092,0.13091 -0.19981,0.52525 -0.73495,0.87629 -0.53514,0.35105 -0.97477,0.83925 -0.97696,1.08489 -0.003,0.30074 -0.50023,0.42538 -1.52328,0.38158 -1.374276,-0.0588 -1.474929,-0.009 -1.05436,0.52503 0.42038,0.5335 0.38041,0.53184 -0.416993,-0.0173 -1.386324,-0.95477 -6.416641,-3.70794 -7.573161,-4.14491 -0.575725,-0.21752 -1.240976,-0.55667 -1.478336,-0.75367 -0.456064,-0.3785 -0.243212,-1.48225 0.229503,-1.1901 0.582659,0.36011 0.749781,-2.91995 0.214097,-4.20202 -0.290577,-0.69545 -0.377673,-1.26446 -0.193546,-1.26446 0.59614,0 0.354105,-1.426 -0.282584,-1.6649 -0.339549,-0.12741 -0.803251,-0.47961 -1.03045,-0.78268 -0.356669,-0.47577 0.159301,-0.77415 3.777802,-2.18467 5.189389,-2.02286 6.952058,-3.04256 8.882148,-5.13833 0.83131,-0.90267 1.82363,-1.96541 2.20517,-2.36165 0.49119,-0.51012 0.73203,-1.34181 0.82503,-2.84896 0.17607,-2.85366 -0.71812,-5.22004 -2.52317,-6.67727 -1.32917,-1.07306 -1.42682,-1.0939 -4.725475,-1.00824 -1.852542,0.0481 -3.543669,0.22237 -3.75806,0.38724 -0.21439,0.16487 -3.009176,1.13724 -6.210634,2.16083 -3.201458,1.02358 -6.603272,2.25544 -7.559587,2.73747 -2.793924,1.40825 -6.711843,2.75652 -6.361121,2.18905 0.112208,-0.18156 -0.07382,-0.33011 -0.413398,-0.33011 -0.559633,0 -0.553328,-0.0522 0.06737,-0.55796 0.487878,-0.39753 0.524173,-0.50864 0.126222,-0.38642 -0.30721,0.0944 -0.563142,-0.0117 -0.568736,-0.23578 -0.0056,-0.22404 -0.128957,-1.62568 -0.274139,-3.11476 l -0.263967,-2.70742 2.731236,-0.0143 c 1.50218,-0.008 2.816167,-0.0992 2.919972,-0.203 0.103805,-0.1038 -4.089429,-0.18873 -9.318298,-0.18873 h -9.507035 l 0.25398,3.0868 c 0.139689,1.69775 0.684909,4.51556 1.211601,6.26181 1.067229,3.53841 1.223363,4.80204 0.619145,5.01091 -0.85174,0.29445 -2.1449,-5.09266 -3.136805,-13.06745 l -0.21226,-1.70654 -4.421942,0.10695 -4.421941,0.10695 -0.475965,-0.90841 -0.475965,-0.90841 2.366509,-0.22352 c 1.30158,-0.12294 3.595039,-0.22465 5.096574,-0.22603 l 2.730065,-0.003 -0.138797,-2.65749 c -0.146516,-2.80528 0.154429,-4.69268 0.701271,-4.39806 0.180676,0.0973 0.270458,1.71782 0.200342,3.61597 l -0.127054,3.43958 h 6.698838 6.698838 l 0.433531,-1.04663 c 0.238442,-0.57565 0.654577,-1.23009 0.924744,-1.45431 0.270166,-0.22422 0.51211,-0.90417 0.537652,-1.511 l 0.04644,-1.10333 0.259898,1.23472 c 0.243043,1.15465 0.262909,1.11596 0.306337,-0.59654 0.02554,-1.00719 0.220449,-1.93881 0.433127,-2.07025 0.212677,-0.13144 0.320112,-0.69258 0.238743,-1.24699 -0.113579,-0.77386 -0.04596,-0.92336 0.291114,-0.64361 0.326793,0.27121 0.406428,0.20137 0.311445,-0.27314 -0.335931,-1.67823 -0.424107,-3.61701 -0.156993,-3.45192 0.262835,0.16244 0.180227,-1.27289 -0.178134,-3.09512 -0.06683,-0.33981 0.01147,-0.53566 0.173995,-0.43522 0.162526,0.10045 0.395215,0.0213 0.517087,-0.1759 0.393091,-0.63603 1.267499,-0.38358 2.321247,0.67016 0.565782,0.56579 1.110184,0.89685 1.209783,0.73569 0.0996,-0.16115 -0.01834,-0.36772 -0.262081,-0.45905 -0.326219,-0.12222 -0.289175,-0.29309 0.140375,-0.64749 0.78321,-0.64618 0.47873,-2.66973 -0.445868,-2.96318 -0.367176,-0.11654 -0.833138,-0.52121 -1.035472,-0.89928 -0.31961,-0.59719 -0.229553,-0.715045 0.686376,-0.898235 0.809476,-0.16189 1.079271,-0.42676 1.162003,-1.1408 0.0746,-0.64386 0.302417,-0.91409 0.74052,-0.87839 0.426875,0.0348 0.872938,-0.45936 1.370861,-1.51865 0.533073,-1.13406 0.890759,-1.51162 1.287727,-1.35929 0.426677,0.16373 0.403719,0.0497 -0.10262,-0.50982 -0.713486,-0.7884 -1.083762,-0.95768 -0.685608,-0.31346 0.157208,0.25437 0.09664,0.31144 -0.161323,0.15202 -0.227172,-0.1404 -0.344035,-0.36693 -0.259696,-0.50339 0.242442,-0.39228 -22.062668,-22.253986 -22.719611,-22.267969 -0.270335,-0.0058 -4.531096,5.688397 -6.656482,8.895839 -2.55501,3.85578 -5.447049,9.69007 -7.08291,14.28879 -2.112525,5.938695 -3.888212,15.426485 -3.896602,20.820175 -0.0026,1.67163 -0.0949,1.89579 -0.907804,2.20486 -1.228695,0.46715 -1.917312,0.43234 -1.917312,-0.0969 0,-0.33441 -1.364074,-0.44098 -5.644445,-0.44098 -3.104443,0 -5.644443,0.11354 -5.644443,0.25231 0,0.49446 -2.2383,2.79109 -3.209847,3.29349 -3.112543,1.60956 -7.769149,-0.48668 -8.944949,-4.02669 -1.573301,-4.73675 2.69355,-9.87461 7.485719,-9.01381 2.059245,0.36989 4.479366,3.05226 5.048542,5.5956 l 0.446048,1.99316 5.373816,-0.10536 5.373818,-0.10536 0.229045,-2.64583 c 0.767912,-8.87058 3.510384,-19.311785 6.810514,-25.929165 2.001123,-4.01262 5.866013,-10.095282 8.480292,-13.346496 L 49.389887,69.63426 48.11894,68.166456 c -0.699022,-0.807292 -1.80236,-1.98874 -2.451864,-2.62544 -1.151531,-1.128829 -1.307224,-2.198484 -0.32,-2.198484 0.253828,0 1.563649,1.110655 2.910714,2.468121 l 2.449209,2.468122 1.598274,-1.531511 C 58.370548,60.93593 66.475833,55.437276 73.218234,52.560388 l 2.38125,-1.016045 v -7.506221 c 0,-5.077649 0.121642,-7.506221 0.37597,-7.506221 0.206784,0 0.683034,0.164335 1.058333,0.36519 0.638034,0.341465 0.682364,0.802506 0.682364,7.0967 0,6.249838 0.04417,6.7176 0.617361,6.537102 0.339549,-0.106925 2.623705,-0.909307 5.075903,-1.783071 2.452198,-0.873764 5.468448,-1.773879 6.702778,-2.000254 1.234328,-0.226376 2.601418,-0.477409 3.037988,-0.557851 0.79064,-0.145686 0.79375,-0.172869 0.79375,-6.947835 v -6.801576 l -1.2044,-0.435515 c -0.66241,-0.239533 -1.791634,-1.085522 -2.509376,-1.879977 -1.241108,-1.373758 -1.297006,-1.540673 -1.141987,-3.410006 0.144377,-1.740989 0.314225,-2.096268 1.486694,-3.109789 2.036579,-1.760484 4.687649,-1.728063 6.575299,0.08041 2.22208,2.128889 2.19059,4.927161 -0.0832,7.393939 l -1.41923,1.539686 0.25149,6.27795 0.25148,6.27795 3.04176,-0.100749 c 1.672959,-0.05541 3.406879,-0.134787 3.853149,-0.176389 l 0.8114,-0.07564 -0.0461,-14.463889 c -0.0254,-7.955139 -0.0788,-14.896076 -0.11872,-15.424305 -0.0399,-0.528229 -0.48398,-1.401354 -0.98677,-1.940278 -1.89784,-2.034249 -2.17827,-3.6600842 -0.96883,-5.6169902 0.8628,-1.396035 1.65691,-1.88926 3.04178,-1.88926 1.98814,0 3.62947,2.002209 3.62947,4.427481 0,1.0109662 -0.27636,1.5638712 -1.28659,2.5741072 l -1.28659,1.286588 0.25507,15.520691 c 0.14029,8.53638 0.28269,15.540587 0.31645,15.564906 0.0338,0.02432 1.76129,0.127103 3.83896,0.228409 l 3.77758,0.184194 0.10298,-6.5176 0.10298,-6.5176 -1.6757,-1.69257 c -1.38669,-1.400663 -1.67569,-1.915668 -1.67569,-2.986163 0,-1.614762 0.71025,-3.019613 2.13106,-4.215144 3.1677,-2.665443 8.69176,0.570877 7.92756,4.644428 -0.2757,1.469615 -2.46082,3.807069 -3.89559,4.167173 l -0.87136,0.218699 v 6.800867 6.800867 l 1.56197,0.234233 c 3.10795,0.466065 9.71848,2.304473 11.99014,3.334492 l 2.32289,1.053248 V 44.630386 38.66201 l -0.84153,-0.211209 c -0.95446,-0.239554 -2.12587,-2.141495 -1.93269,-3.137975 0.0822,-0.423881 0.49908,-0.711797 1.15839,-0.799987 0.84176,-0.112596 0.95642,-0.04912 0.6274,0.347324 -0.30624,0.369005 -0.27357,0.669307 0.13653,1.254808 0.59292,0.84651 1.5604,0.981756 2.69173,0.376285 0.70229,-0.375857 0.72367,-0.332541 0.47876,0.970139 -0.50188,2.669484 -0.54168,3.893709 -0.28521,8.771895 l 0.25967,4.938889 1.21932,0.394097 c 1.18736,0.383773 1.19679,0.401247 0.3596,0.666961 -0.47285,0.150074 -1.28966,0.59073 -1.81514,0.979236 -0.89137,0.659017 -1.03373,0.669994 -2.12349,0.163734 -4.10183,-1.905552 -13.05924,-4.5019 -15.51098,-4.49593 -0.37889,9.22e-4 -0.47375,1.272287 -0.47375,6.349305 0,6.114536 -0.026,6.347979 -0.70556,6.343445 -1.64619,-0.01098 -1.68455,-0.204154 -1.33838,-6.740827 0.17853,-3.371206 0.21475,-6.261036 0.0805,-6.421845 -0.22299,-0.267097 -7.39643,-1.048689 -7.61538,-0.829744 -0.0521,0.05208 -0.14065,7.656594 -0.19683,16.898921 -0.0993,16.337133 -0.12235,16.831293 -0.82916,17.777583 -0.39986,0.53535 -0.9158,1.03628 -1.14653,1.11319 -0.32052,0.10684 -0.41951,-4.124476 -0.41951,-17.931949 V 47.36657 l -2.81737,0.23496 c -1.549559,0.129229 -3.295809,0.330647 -3.880559,0.447596 l -1.06318,0.212636 v 6.658681 6.65868 h -1.07332 -1.07333 l 0.10319,-6.261805 0.10319,-6.261806 -1.23473,0.113017 c -3.357096,0.307284 -11.10524,2.896591 -20.102189,6.717835 -3.38894,1.439373 -9.908649,5.49245 -13.588084,8.44724 -3.172255,2.547497 -6.17361,5.367082 -6.17361,5.79972 0,0.590182 3.029169,3.735715 7.314785,7.595779 2.282771,2.056092 6.832003,6.318562 10.109406,9.472152 l 5.958915,5.73378 1.841268,-1.83143 c 2.366217,-2.35357 4.047562,-3.66112 5.790643,-4.50329 0.767624,-0.37087 1.485306,-0.81933 1.594848,-0.99658 0.243387,-0.39381 1.609577,-0.0804 1.609577,0.36927 0,0.17749 -0.277812,0.42521 -0.617361,0.55049 -0.339548,0.12528 -0.696736,0.32025 -0.79375,0.43328 -0.09701,0.11302 -0.782408,0.52147 -1.5231,0.90767 -0.740691,0.3862 -1.615724,0.94031 -1.944519,1.23135 -0.328795,0.29104 -1.373128,1.12223 -2.320741,1.84708 -2.740157,2.09603 -2.88237,2.45172 -1.540111,3.852 0.933724,0.97408 1.027767,1.01637 0.53873,0.2423 -0.482523,-0.76377 -0.507034,-1.00869 -0.132095,-1.31986 0.253201,-0.21014 0.590273,-0.26438 0.749049,-0.12055 0.158776,0.14384 0.175265,0.0643 0.03664,-0.17665 -0.138623,-0.241 -0.08953,-0.71725 0.109102,-1.05833 0.199414,-0.34244 0.365947,-0.42268 0.371871,-0.17919 0.01263,0.51931 1.069061,0.60647 1.069061,0.0882 0,-0.19403 0.396874,-0.35278 0.881944,-0.35278 0.485069,0 0.881944,-0.19937 0.881944,-0.44305 0,-0.24367 0.515938,-0.64742 1.146528,-0.89721 0.63059,-0.24979 1.595955,-0.68541 2.145256,-0.96806 0.5493,-0.28264 1.223987,-0.5139 1.499305,-0.5139 0.275318,0 0.475375,-0.11906 0.444571,-0.26458 -0.180177,-0.85119 0.552994,-1.37493 2.03189,-1.45148 0.878744,-0.0455 2.010794,-0.23976 2.515674,-0.43172 0.6483,-0.24648 0.99149,-0.23003 1.16828,0.056 0.18659,0.30191 0.57097,0.28908 1.50979,-0.0504 0.69271,-0.25048 1.19694,-0.55662 1.1205,-0.6803 -0.0764,-0.12367 0.318993,-0.15765 0.878733,-0.0755 0.55974,0.0821 1.52824,-0.10532 2.15223,-0.41661 0.623999,-0.31128 1.554639,-0.56597 2.068109,-0.56597 0.51347,0 1.12839,-0.19482 1.3665,-0.43292 0.34204,-0.34204 0.35987,-0.21245 0.0849,0.61736 -0.19138,0.57765 -0.41707,2.00747 -0.50152,3.17736 -0.20188,2.79667 -0.74514,3.99129 -3.421619,7.52409 -2.0113,2.65479 -2.23374,3.11424 -2.23374,4.613745 0,1.89192 0.85913,3.62467 2.34711,4.73378 0.781959,0.58286 1.514619,0.73089 3.674589,0.74243 1.78819,0.01 2.74528,-0.12759 2.83845,-0.40673 0.0773,-0.23164 0.33725,-0.34568 0.57765,-0.25343 0.24111,0.0925 0.69531,-0.35136 1.01298,-0.98996 l 0.57589,-1.15768 0.0226,1.07908 c 0.0272,1.2996 -1.26963,3.51328 -5.22978,8.92741 -1.61292,2.2051 -2.971029,4.34823 -3.018039,4.7625 -0.047,0.41428 -0.51025,1.64798 -1.02945,2.74156 -0.92999,1.95886 -0.93474,2.00593 -0.32,3.175 0.3432,0.65267 0.73414,1.23662 0.86876,1.29766 0.13462,0.061 0.15663,0.34065 0.0489,0.62136 -0.14277,0.37204 -0.0261,0.44523 0.43046,0.27004 0.416089,-0.15967 0.544369,-0.10775 0.382179,0.15468 -0.293529,0.47494 0.80999,1.11198 1.50042,0.86616 0.26954,-0.096 0.39295,-0.0173 0.27424,0.17475 -0.13319,0.21551 0.69225,0.36861 2.15575,0.39984 2.15348,0.046 2.60278,-0.0782 4.88525,-1.34948 1.91232,-1.06515 3.30485,-2.26428 5.82083,-5.01245 1.81895,-1.9868 3.84294,-4.09578 4.49775,-4.68663 2.53802,-2.29009 4.86503,-4.65401 5.73671,-5.82769 l 0.91027,-1.22565 0.55837,1.07976 c 0.3071,0.59387 0.95961,2.66266 1.45002,4.59731 1.03357,4.07741 3.63176,9.91585 5.22423,11.73948 0.60638,0.69439 1.59115,1.62829 2.18839,2.07533 0.59724,0.44703 1.03558,1.05828 0.9741,1.35832 -0.0615,0.30003 0.037,0.45359 0.21876,0.34123 0.19631,-0.12133 0.28535,0.68815 0.21924,1.99307 -0.1119,2.2089 -0.0402,2.31426 0.35521,0.52167 0.37325,-1.69236 2.66997,-1.12106 2.66997,0.66414 0,0.8706 -0.9226,1.33065 -1.97878,0.98671 -0.50886,-0.16571 -0.46202,-0.05 0.1975,0.4879 0.96263,0.78511 0.93884,0.84617 -1.21734,3.12472 -1.63312,1.72581 -1.82517,2.01108 -2.65922,3.94988 -0.62505,1.45297 -0.9448,1.81095 -1.61755,1.81095 -0.46118,0 -0.8385,0.13415 -0.8385,0.2981 0,0.50097 1.27458,1.48472 1.55733,1.20198 0.14594,-0.14595 0.21244,-0.0855 0.14776,0.13426 -0.11376,0.38659 5.28788,6.04997 13.41426,14.06427 5.23008,5.15794 5.88581,5.85733 6.36897,6.79304 0.38239,0.74054 0.47739,0.76078 1.36756,0.29135 1.96631,-1.03693 6.0927,-5.80741 9.36007,-10.82107 5.14059,-7.88806 8.80926,-17.82305 9.9536,-26.95498 0.7069,-5.64116 1.22839,-12.27565 1.22504,-15.58523 -0.002,-2.15551 0.13728,-3.02542 0.55144,-3.43958 1.08247,-1.08247 1.56196,-0.68541 1.56712,1.29772 0.009,3.60874 -0.42629,3.38127 6.35556,3.31834 l 5.9426,-0.0551 0.2247,-1.62543 c 0.28044,-2.02868 1.14096,-3.46949 2.85,-4.7719 1.12721,-0.85902 1.64944,-1.01018 3.47388,-1.00552 4.08349,0.0104 6.90122,2.70897 6.90122,6.60932 0,2.94086 -1.35766,5.04859 -4.05695,6.29832 -2.85743,1.32295 -6.47727,0.38383 -8.12508,-2.10795 l -0.84658,-1.28018 -6.32052,0.10327 -6.32053,0.10327 -0.23889,4.48284 c -0.36176,6.78841 -0.81439,10.01718 -2.14282,15.28552 -2.69701,10.69585 -6.05515,17.51124 -12.88121,26.14259 -3.01454,3.81179 -5.09335,5.80503 -10.58628,10.15057 -4.2239,3.34158 -4.92112,3.82819 -8.51352,5.94206 -8.47237,4.98538 -17.42194,8.80814 -24.54609,10.48475 l -2.55764,0.60192 v 2.95091 c 0,1.623 0,3.06998 0,3.2155 0,0.14552 0.62817,0.47397 1.39594,0.72989 2.8797,0.9599 4.564,4.22818 3.41774,6.63191 -1.82015,3.81688 -7.90384,3.22997 -9.03638,-0.87177 -0.392,-1.41974 0.38969,-3.6154 1.70204,-4.78082 0.67813,-0.6022 0.75677,-1.03687 0.75677,-4.18288 0,-3.20744 -0.0534,-3.4884 -0.61736,-3.25108 -0.33955,0.14287 -2.16517,0.42561 -4.05694,0.62832 l -3.43959,0.36856 v 8.60483 c 0,8.07283 -0.19252,9.96957 -1.01195,9.96957 -0.15486,0 -0.3874,-0.10584 -0.51675,-0.23519 z m -9.054629,-6.11481 c 0.95543,-0.95543 0.93527,-2.94529 -0.0397,-3.92027 -0.58342,-0.58343 -1.01732,-0.70113 -1.99802,-0.54198 -1.5657,0.25408 -1.81792,0.50771 -2.07397,2.08553 -0.386951,2.38451 2.4589,4.02952 4.11171,2.37672 z m 22.734169,-0.43128 c 1.25538,-1.79231 0.27274,-3.80206 -1.85898,-3.80206 -1.60185,0 -2.53074,0.85247 -2.53074,2.32254 0,1.53217 0.7996,2.26357 2.47464,2.26357 1.01158,0 1.50837,-0.20339 1.91508,-0.78405 z m -3.82662,-15.70263 c 0.5295,-0.69776 0.67309,-4.69787 0.18763,-5.22679 -0.16918,-0.18433 -0.40284,-1.87975 -0.51925,-3.76762 -0.1934,-3.13663 -0.15368,-3.4635 0.4608,-3.79236 1.38129,-0.73924 1.42439,-0.55265 1.42439,6.16651 0,5.18363 0.0962,6.52639 0.46753,6.52639 0.25714,0 2.04307,-0.47353 3.96875,-1.05228 12.33584,-3.70748 26.37487,-11.443 31.48925,-17.3506 l 1.17691,-1.35945 -1.70607,-1.57011 c -0.93835,-0.86356 -1.79628,-1.57641 -1.90653,-1.58411 -0.11024,-0.008 -1.45962,-1.24432 -2.99862,-2.74804 -5.33598,-5.21366 -15.74817,-15.08176 -16.02242,-15.18516 -0.15159,-0.0571 -0.41422,0.6547 -0.58361,1.5819 -0.29378,1.60805 -0.37298,1.69904 -1.71673,1.97256 -0.77481,0.15771 -1.8453,0.37668 -2.37888,0.48661 -0.53358,0.10993 -0.97014,0.31137 -0.97014,0.44765 0,0.4098 -2.77441,1.8381 -3.43904,1.77045 -1.20311,-0.12246 -1.35054,0.0339 -1.40876,1.49387 -0.0833,2.08852 -0.69576,3.33599 -1.87839,3.82585 -1.94759,0.80672 -3.9317,-0.45242 -5.29629,-3.36109 -0.36411,-0.77611 -0.66551,-1.16296 -0.66977,-0.85967 -0.006,0.40879 -0.43911,0.57377 -1.67523,0.63776 -0.91711,0.0475 -1.78781,0.27557 -1.93488,0.50689 -0.16304,0.25644 -0.27162,0.0764 -0.2782,-0.46137 -0.008,-0.61897 -0.0998,-0.74156 -0.30924,-0.41115 -0.30452,0.4804 -0.46523,0.18259 -1.11077,-2.05829 -0.13974,-0.48507 -0.31396,7.51414 -0.38717,17.77601 l -0.1331,18.65796 3.83752,-0.21964 c 3.08321,-0.17647 3.93045,-0.34211 4.31031,-0.84268 z m 3.2469,-31.91443 c 1.17385,-1.17384 -0.53594,-2.85433 -2.06921,-2.03375 -0.65622,0.3512 -0.93468,1.73449 -0.44727,2.2219 0.38976,0.38976 2.06373,0.26461 2.51648,-0.18815 z m -35.030839,-4.16278 c -0.119916,-0.19402 -0.376779,-0.35277 -0.570807,-0.35277 -0.194028,0 -0.254665,0.15875 -0.134749,0.35277 0.119916,0.19403 0.376779,0.35278 0.570807,0.35278 0.194027,0 0.254664,-0.15875 0.134749,-0.35278 z m 46.037509,-6.56436 c 0,-0.29197 -0.685,-0.45708 -0.84205,-0.20296 -0.10189,0.16485 0.0459,0.29973 0.3284,0.29973 0.28251,0 0.51365,-0.0435 0.51365,-0.0968 z m -1.74611,-1.64752 -0.82497,-0.78395 0.66818,0.93559 c 0.3675,0.51457 0.73873,0.86735 0.82497,0.78395 0.0862,-0.0834 -0.21445,-0.50442 -0.66818,-0.93559 z m -23.56571,-3.66342 c -0.24253,-0.0979 -0.63941,-0.0979 -0.88194,0 -0.24254,0.0979 -0.0441,0.17794 0.44097,0.17794 0.48507,0 0.68351,-0.0801 0.44097,-0.17794 z m 32.97738,-9.85728 c -0.11722,-0.11722 -0.42149,-0.12975 -0.67615,-0.0279 -0.28143,0.11262 -0.19783,0.19621 0.21313,0.21314 0.37189,0.0153 0.58025,-0.0681 0.46302,-0.18529 z m -38.072589,-9.14481 c -0.10862,-0.10861 -0.30588,0.0872 -0.43836,0.4351 -0.19144,0.50277 -0.15092,0.5433 0.19749,0.19748 0.24109,-0.2393 0.34948,-0.52396 0.24087,-0.63258 z m 1.05833,-2.11666 c -0.10861,-0.10862 -0.30587,0.0872 -0.43835,0.43509 -0.19145,0.50278 -0.15093,0.5433 0.19748,0.19748 0.2411,-0.2393 0.34949,-0.52396 0.24087,-0.63257 z m -83.26733,-0.5999 c 0.724898,-0.60161 1.843985,-2.95498 1.842484,-3.87463 -0.0017,-1.04204 -1.149212,-2.91873 -2.186701,-3.57623 -1.641285,-1.04015 -2.914694,-1.04918 -4.126774,-0.0293 -2.83678,2.387 -2.80531,5.79388 0.0701,7.5922 1.20486,0.75352 3.426067,0.69697 4.40088,-0.11205 z m 182.854829,-0.3738 c 1.71755,-1.15581 2.30648,-3.08633 1.54765,-5.07329 -0.44969,-1.1775 -0.89492,-1.64437 -2.14549,-2.24976 -2.74232,-1.32753 -5.08305,-0.19109 -6.12802,2.9752 -1.17903,3.57248 3.44047,6.5587 6.72586,4.34785 z M 70.744898,109.39118 c 0.0916,-0.4792 0.03074,-0.78733 -0.135264,-0.68473 -0.292298,0.18065 -0.439515,1.556 -0.166553,1.556 0.0744,0 0.210212,-0.39207 0.301817,-0.87127 z m 2.032364,-11.123165 c 0,-0.19403 -0.15875,-0.35278 -0.352778,-0.35278 -0.194027,0 -0.352777,0.15875 -0.352777,0.35278 0,0.19402 0.15875,0.35277 0.352777,0.35277 0.194028,0 0.352778,-0.15875 0.352778,-0.35277 z m 5.438917,-0.30563 c 0.103889,-0.1681 -0.164554,-0.60466 -0.596541,-0.97014 -0.783377,-0.66277 -0.783815,-0.66259 -0.167301,0.0697 0.339972,0.4038 0.511951,0.84036 0.382176,0.97014 -0.129775,0.12977 -0.13949,0.23595 -0.02159,0.23595 0.117901,0 0.299365,-0.13753 0.403255,-0.30563 z M 95.596881,29.414851 c 1.18462,-1.112885 1.12855,-3.169611 -0.11303,-4.146234 -2.73333,-2.150041 -5.783833,1.309465 -3.43917,3.900289 0.48924,0.540608 1.05814,0.7688 2.40568,0.964953 0.18152,0.02642 0.69746,-0.29713 1.14652,-0.719008 z M 117.3707,29.035373 c 1.27618,-1.140299 1.47096,-2.380452 0.55646,-3.543046 -0.54981,-0.698968 -1.06828,-0.954871 -1.93461,-0.954871 -2.40499,0 -3.43385,3.108026 -1.54736,4.674306 0.99863,0.829121 1.85819,0.777295 2.92551,-0.176389 z M 105.95586,10.581657 c 0.64565,-0.7779612 0.0233,-2.4151242 -0.97243,-2.5581762 -1.08304,-0.155592 -2.06501,1.374238 -1.52716,2.3792082 0.46347,0.866008 1.84718,0.965079 2.49959,0.178968 z M 9.27727,206.05928 c -1.96199,-1.07505 -7.658061,-9.74611 -9.22786097,-14.04745 -1.08042003,-2.96046 -1.26063003,-5.27094 -0.612,-7.84688 0.48285,-1.9176 1.1905,-2.40686 5.13402997,-3.54965 2.818101,-0.81666 7.539911,-3.19361 8.079971,-4.06746 0.13901,-0.22492 0.682517,0.17159 1.337121,0.97547 0.6066,0.74493 2.099183,2.42245 3.31685,3.72782 3.518803,3.77226 3.561686,4.50622 0.398932,6.8279 -0.998575,0.73302 -2.584947,1.98948 -3.525269,2.79212 -0.940323,0.80265 -2.666534,2.00436 -3.836014,2.67047 -2.68386,1.52865 -3.03454,2.45165 -1.48255,3.90212 0.63733,0.59563 1.16237,1.496 1.26147,2.16324 0.74501,5.01601 0.91921,6.26502 0.91921,6.59078 0,0.50231 -0.69386,0.44783 -1.76389,-0.13848 z m 75.494436,-10.33096 c -1.78658,-0.6868 -4.586111,-4.23167 -4.586111,-5.80711 0,-0.27648 -1.27,-2.41935 -2.822222,-4.76193 -1.552222,-2.34257 -2.822222,-4.44171 -2.822222,-4.66476 0,-0.22304 0.396875,-1.18872 0.881944,-2.14596 0.48507,-0.95724 0.881945,-2.05783 0.881945,-2.44575 0,-0.79057 1.065245,-3.1987 1.414956,-3.1987 0.684311,0 5.625787,7.22044 7.001515,10.23056 0.74293,1.62554 3.040394,8.86558 3.427517,10.80119 0.353402,1.76701 -1.349864,2.77186 -3.377322,1.99246 z m -25.752711,-1.21169 c -3.6e-5,-0.12985 0.249245,-1.20924 0.553958,-2.39865 0.561883,-2.19325 0.563291,-2.17345 -0.449617,-6.32391 -0.190966,-0.7825 -0.130904,-0.82564 0.814855,-0.58538 0.561559,0.14267 2.687891,0.54892 4.725183,0.90279 5.936266,1.0311 6.587643,1.45056 5.159706,3.32269 -0.493899,0.64753 -1.285404,2.05332 -1.758899,3.12398 -0.711153,1.60804 -1.050825,1.98836 -1.952784,2.18647 -1.319969,0.28991 -7.092311,0.10436 -7.092402,-0.22799 z M 20.802748,182.84647 c -0.657909,-1.01864 -2.06713,-2.72972 -3.131603,-3.8024 -1.064473,-1.07268 -2.118561,-2.29255 -2.342419,-2.71084 -0.787531,-1.47151 -0.335126,-7.33707 0.737007,-9.55551 0.243913,-0.5047 1.864321,-1.99524 3.600906,-3.31232 1.736587,-1.31707 3.800335,-3.01553 4.58611,-3.77436 1.860544,-1.79674 13.531139,-9.49317 15.059982,-9.93164 1.911512,-0.54821 3.052023,-0.39735 4.564904,0.60383 2.099068,1.38909 3.283289,3.59985 3.047827,5.68982 -0.158788,1.40941 -0.414463,1.85411 -1.705192,2.96591 -0.835117,0.71935 -1.42561,1.4007 -1.312206,1.5141 0.113403,0.1134 1.164194,0.0519 2.33509,-0.13666 2.515917,-0.40518 3.375721,-0.24279 4.963902,0.9375 1.461734,1.08632 2.167429,2.70168 2.167429,4.96131 0,2.97862 -1.557398,4.29017 -5.888408,4.95886 -3.478508,0.53707 -3.989369,0.50794 -3.989369,-0.22752 0,-0.40029 -0.441758,-0.75751 -1.249364,-1.01028 -1.220054,-0.38187 -1.297229,-0.34681 -3.289616,1.49441 -1.122138,1.03701 -2.61642,2.32507 -3.320626,2.86237 -0.704206,0.53729 -3.152942,2.40444 -5.441634,4.14921 -2.288693,1.74478 -5.000874,3.84821 -6.02707,4.67431 -1.026196,0.82609 -1.93413,1.50199 -2.017631,1.50199 -0.0835,0 -0.69011,-0.83344 -1.348019,-1.85209 z m 39.544869,-4.85823 c -0.149574,-2.0905 -0.334261,-2.57682 -1.630628,-4.29385 -0.804071,-1.06498 -1.461948,-2.10183 -1.461948,-2.30411 0,-0.53186 1.264792,-0.79235 3.880555,-0.79922 1.261181,-0.003 4.040568,-0.16974 6.176416,-0.36983 2.246446,-0.21045 4.476989,-0.23822 5.291666,-0.0659 1.393532,0.29478 1.407958,0.31434 1.375125,1.86431 -0.04678,2.20826 -0.719296,4.35702 -1.745276,5.57633 -0.738707,0.8779 -1.282774,1.10472 -3.430305,1.43005 -1.403792,0.21267 -3.842628,0.5966 -5.419637,0.85319 l -2.867289,0.46653 z m -59.88979797,0.87852 c 0,-0.32322 1.05071997,-3.38986 2.33491997,-6.81475 1.28421,-3.42488 2.88421,-7.81456 3.55556,-9.75484 1.611741,-4.65812 2.681571,-6.45902 4.218481,-7.10119 1.31716,-0.55034 4.482348,-0.71457 5.787605,-0.3003 1.302346,0.41335 4.456463,2.55404 4.700618,3.1903 0.345021,0.89911 -1.059169,2.85431 -3.169623,4.41339 -2.363799,1.74624 -2.778638,2.55252 -4.247851,8.25608 -0.811819,3.15153 -1.407069,4.77981 -1.895309,5.18455 -0.80431,0.66676 -6.494531,2.61094 -8.638561,2.95155 -0.77612,0.12329 -1.68893,0.30038 -2.02848,0.39353 -0.40866997,0.11211 -0.61735997,-0.0293 -0.61735997,-0.41832 z M 91.028115,172.21539 c -1.740558,-0.47967 -4.938043,-2.86945 -5.128288,-3.83286 -0.10811,-0.54747 2.010961,-5.15519 2.95525,-6.4259 0.491105,-0.66088 0.697125,-0.51228 4.402054,3.175 3.3662,3.35015 3.87335,4.00541 3.78612,4.89177 -0.19856,2.01773 -2.97548,3.02967 -6.015136,2.19199 z m -33.89992,-6.12586 c -0.09591,-0.33955 -0.279829,-1.29508 -0.408698,-2.12341 -0.175752,-1.12967 -0.667091,-1.97959 -1.966049,-3.40085 -0.952457,-1.04214 -1.73174,-2.14317 -1.73174,-2.44672 0,-0.57971 0.159493,-0.62093 5.089638,-1.31549 1.538121,-0.21668 4.768687,-0.93447 7.179036,-1.59507 2.410348,-0.66061 4.587714,-1.2011 4.83859,-1.2011 0.716819,0 0.884401,0.86411 0.884401,4.56029 0,4.62209 0.0971,4.54046 -7.998496,6.72404 -2.876868,0.77597 -5.339034,1.41193 -5.47148,1.41326 -0.132446,0.001 -0.319287,-0.2754 -0.415202,-0.61495 z m 20.971028,-1.13075 c -4.246653,-1.47805 -4.238839,-1.46549 -3.962906,-6.36578 0.216139,-3.8384 0.270543,-4.06293 1.009944,-4.16807 0.763364,-0.10854 9.737131,3.74397 11.290053,4.84691 0.973478,0.69141 0.982904,0.91718 0.08716,2.08759 -0.394723,0.51576 -1.350915,1.77118 -2.12487,2.78982 -1.690881,2.22546 -2.085471,2.27617 -6.299379,0.80953 z M 22.990468,154.70829 c -1.600668,-0.93504 -6.315246,-2.57021 -8.16397,-2.83152 -1.152796,-0.16295 -2.183108,-0.38338 -2.289578,-0.48986 -0.10647,-0.10647 1.165357,-1.60327 2.82629,-3.32623 1.660933,-1.72295 3.27702,-3.6299 3.591305,-4.23766 0.314283,-0.60776 0.845161,-1.10451 1.179727,-1.1039 0.334566,6.2e-4 1.560801,0.63512 2.724967,1.40999 1.164167,0.77488 2.229259,1.40937 2.366871,1.40999 0.521446,0.002 3.453611,1.95218 3.446118,2.29161 -0.0043,0.19544 -0.326652,0.75222 -0.716305,1.23729 -0.389653,0.48507 -1.5172,2.03288 -2.505661,3.43959 -0.98846,1.4067 -1.817061,2.55281 -1.841334,2.54691 -0.02427,-0.006 -0.302567,-0.1617 -0.61843,-0.34621 z m 26.503906,-2.2007 c -0.615124,-1.01865 -1.819366,-2.50956 -2.676093,-3.31314 -1.974991,-1.85248 -1.983848,-2.54741 -0.04557,-3.57567 0.831661,-0.44119 3.887599,-2.29431 6.790972,-4.11804 l 5.278861,-3.31587 0.843962,0.76726 c 1.400941,1.27362 3.56576,4.86567 3.56576,5.91661 0,1.05802 -1.132979,2.05422 -6.814767,5.99207 -1.516803,1.05125 -3.246842,2.26855 -3.844531,2.70511 -0.59769,0.43656 -1.28774,0.79375 -1.533446,0.79375 -0.245705,0 -0.950021,-0.83344 -1.565145,-1.85208 z m -23.460165,-10.2458 c -2.557344,-1.3414 -3.557005,-2.05329 -3.634024,-2.58791 -0.07327,-0.50861 0.693137,-1.60924 2.469443,-3.54634 3.410162,-3.71886 4.27497,-5.02496 6.063409,-9.15743 1.615576,-3.73305 2.301278,-4.35777 4.247099,-3.8694 1.545263,0.38784 2.108339,2.19187 2.056226,6.58791 -0.0728,6.1413 -1.233159,9.84278 -4.0402,12.88806 -1.898948,2.06012 -2.701297,2.02484 -7.161953,-0.31489 z m 39.360611,-0.0277 c -0.596323,-1.04227 -1.084224,-2.04287 -1.084224,-2.22356 0,-0.18069 -0.492664,-0.99845 -1.094808,-1.81724 -1.317417,-1.79141 -1.083985,-2.27553 1.461719,-3.03153 0.931413,-0.2766 3.61863,-1.31267 5.971592,-2.30238 2.637893,-1.10956 4.466945,-1.6938 4.770633,-1.52385 0.859839,0.48119 3.434817,4.35247 3.711741,5.58031 0.314183,1.39305 0.0042,1.74784 -2.719573,3.1126 -1.676006,0.83977 -9.463019,4.10067 -9.792385,4.10067 -0.07726,0 -0.628372,-0.85276 -1.224695,-1.89502 z m 15.661974,-6.12566 c -0.304461,-0.73036 -1.180658,-2.2915 -1.947104,-3.46919 -0.766447,-1.17769 -1.390833,-2.28894 -1.387526,-2.46944 0.0033,-0.1805 1.86862,-1.03955 4.145139,-1.909 2.972365,-1.1352 4.792913,-1.61779 6.458461,-1.712 2.24111,-0.12677 2.351171,-0.0934 3.263197,0.99051 0.64333,0.76456 0.94386,1.5288 0.94386,2.40026 0,1.9011 -3.151578,4.8551 -6.526405,6.11726 -4.222994,1.57936 -4.312363,1.58029 -4.949622,0.0516 z m 73.657126,-11.56888 c -0.93729,-0.6565 -1.54505,-2.67617 -1.25664,-4.17594 0.50448,-2.62333 3.30447,-7.27894 4.37772,-7.27894 0.17489,0 1.09772,0.79633 2.05073,1.76961 0.95302,0.97329 2.33307,2.02043 3.06678,2.327 1.30434,0.54499 1.31835,0.57037 0.62958,1.14081 -0.38745,0.32087 -1.4079,1.5185 -2.26767,2.66138 -2.61825,3.48041 -3.31511,4.09564 -4.63908,4.09564 -0.6551,0 -1.53774,-0.2428 -1.96142,-0.53956 z m -52.93253,-0.5092 c -0.63711,-0.39554 -1.25192,-0.96292 -1.36624,-1.26085 -0.12852,-0.33492 1.07753,-2.45507 3.15955,-5.55423 1.85208,-2.7569 3.71322,-5.68723 4.13588,-6.51185 0.8472,-1.6529 1.40279,-1.9303 1.40279,-0.70039 0,1.22019 2.45909,4.34132 4.14515,5.26112 0.82462,0.44986 1.4993,0.90754 1.4993,1.01708 0,0.10953 -1.54781,1.71886 -3.43958,3.57629 -4.49904,4.41736 -7.22314,5.60929 -9.53685,4.17283 z m 45.52019,-8.17252 c -1.40671,-0.78511 -2.55765,-1.55159 -2.55765,-1.7033 0,-0.1517 1.09238,-0.62707 2.4275,-1.05637 2.3083,-0.74222 2.48322,-0.75174 3.56203,-0.19386 1.04365,0.53969 1.11571,0.68691 0.89976,1.83807 -0.2706,1.44238 -0.90249,2.58295 -1.41789,2.55928 -0.19586,-0.009 -1.50705,-0.65872 -2.91375,-1.44382 z m 14.72846,-1.82305 c -4.35062,-2.15451 -4.60454,-2.5559 -2.88072,-4.5538 0.5499,-0.63735 1.64446,-2.1177 2.43235,-3.28969 1.92105,-2.85758 2.25399,-3.11099 3.40072,-2.58851 0.99276,0.45233 1.10814,0.70812 1.44779,3.20978 0.18744,1.38056 0.47487,1.87831 1.68066,2.91041 0.79999,0.68477 1.66409,1.24504 1.9202,1.24504 0.71542,0 0.55215,0.63056 -0.22732,0.87795 -0.38114,0.12097 -1.31397,0.92542 -2.07295,1.78766 -1.69559,1.9263 -2.50587,1.98332 -5.70073,0.40116 z M 115.0499,111.7261 c -0.64571,-0.74721 -1.53121,-1.54655 -1.96777,-1.7763 -0.69997,-0.36838 -0.79375,-0.33291 -0.79375,0.30024 0,0.39488 -0.14322,0.71797 -0.31827,0.71797 -0.50638,0 -1.05941,-1.95423 -0.70943,-2.50693 0.17124,-0.27043 0.31377,-0.93484 0.31674,-1.47647 0.004,-0.80124 1.03679,-2.00121 5.53909,-6.4382 3.04353,-2.999365 5.65988,-5.453395 5.81411,-5.453395 0.15424,0 0.35373,0.35719 0.44333,0.79375 0.83862,4.08632 1.0615,4.658515 2.34544,6.021605 0.97147,1.03136 1.26055,1.57849 1.04578,1.97931 -0.58152,1.08527 -7.53115,8.17738 -8.50822,8.68264 -1.47813,0.76437 -1.91675,0.64891 -3.20705,-0.84422 z m 28.0684,-1.50579 c -0.60446,-0.66792 -1.52766,-4.23321 -1.54201,-5.95508 -0.007,-0.8034 0.12617,-0.88203 1.49195,-0.88291 0.82462,-5.3e-4 2.0954,-0.12693 2.82395,-0.28089 1.16678,-0.24657 1.42758,-0.16888 2.1883,0.65195 1.20708,1.30246 1.56103,3.81629 0.67517,4.79516 -0.79593,0.87949 -1.98362,1.5151 -3.72399,1.99294 -1.11219,0.30537 -1.38831,0.25902 -1.91337,-0.32117 z m 26.1664,-3.09611 c -0.10743,-0.17382 0.10954,-0.68976 0.48214,-1.14653 0.61163,-0.7498 0.70081,-0.77051 0.91779,-0.21314 0.46053,1.18295 -0.77032,2.3784 -1.39993,1.35967 z m 2.46624,-2.04136 c -0.57136,-0.68646 -1.44448,-1.41932 -1.94028,-1.62858 -1.47127,-0.62097 -2.84173,-2.07177 -2.84173,-3.00832 0,-0.790485 6.97864,-11.748495 7.80882,-12.261575 0.45572,-0.28165 2.06155,0.7779 3.07376,2.02813 0.45563,0.56277 1.60657,1.41753 2.55764,1.89947 0.95108,0.48195 1.72923,1.10088 1.72923,1.37539 0,0.27452 -0.56249,1.18466 -1.24998,2.02253 -0.68749,0.83787 -2.3802,3.26965 -3.76158,5.403955 -2.4849,3.83929 -3.7402,5.49197 -4.13396,5.44258 -0.1117,-0.014 -0.67057,-0.58712 -1.24192,-1.27358 z m -70.90585,-2.91132 c -1.343639,-1.40246 -1.056489,-2.312535 1.4534,-4.606435 2.3494,-2.14722 2.55158,-2.05744 3.29909,1.46496 l 0.46027,2.168905 -1.12364,1.00397 c -1.47803,1.32063 -2.80355,1.31045 -4.08912,-0.0314 z m 33.13912,0.76539 c -0.85658,-0.62932 -1.22263,-1.50295 -1.58798,-3.789955 -0.44713,-2.79896 -1.33104,-4.44026 -3.00316,-5.5765 l -1.16765,-0.79344 2.52662,-1.30325 c 1.38964,-0.71679 4.19349,-2.66138 6.23078,-4.32132 2.0373,-1.65994 4.07479,-3.11296 4.52778,-3.22893 1.11026,-0.28425 1.72433,0.40779 2.28717,2.57758 0.26913,1.03754 1.022,2.46985 1.79244,3.41007 1.67713,2.04671 1.54582,2.50455 -1.38772,4.83884 -1.24714,0.99238 -3.67235,3.30115 -5.38935,5.13061 -2.94753,3.140565 -3.89661,3.741255 -4.82893,3.056295 z m -24.47296,-1.96874 c -0.58321,-0.70271 -1.45621,-3.365965 -1.45621,-4.442405 0,-0.60084 0.39929,-1.32738 1.09043,-1.98411 0.59974,-0.56988 2.18798,-2.4085 3.52943,-4.08584 2.05408,-2.56839 3.00972,-3.47669 3.65788,-3.47669 0.0584,0 0.52975,0.86584 1.0475,1.92408 0.51775,1.05825 1.40951,2.318 1.98168,2.79945 0.57217,0.48145 1.04031,0.99219 1.04031,1.13498 0,0.43665 -5.36748,5.75471 -7.05556,6.99058 -1.89454,1.387035 -3.28695,1.800875 -3.83546,1.139955 z m 17.28993,-2.162945 c -1.39054,-3.31268 -1.40863,-3.79375 -0.13711,-3.64745 0.77624,0.0893 1.16405,0.49446 1.94028,2.02697 1.14286,2.25634 1.22671,3.390575 0.28778,3.893075 -0.3753,0.20085 -0.75017,0.36519 -0.83304,0.36519 -0.0829,0 -0.64892,-1.18701 -1.25791,-2.637785 z m 15.5615,2.404145 c -0.96141,-0.38794 -0.35983,-1.432845 1.54846,-2.689555 1.09418,-0.72058 2.13867,-1.31014 2.32108,-1.31014 0.29363,0 0.1726,1.22267 -0.27937,2.822215 -0.26959,0.95409 -2.40671,1.65501 -3.59017,1.17748 z M 106.98563,89.682085 c -0.88775,-2.0069 -0.75692,-2.37355 2.78315,-7.79964 1.38578,-2.12408 2.5196,-3.984413 2.5196,-4.134071 0,-0.825906 1.16095,0.383753 1.93148,2.012511 0.49066,1.03718 1.05056,1.9837 1.24421,2.10339 0.65939,0.40753 0.34233,1.40899 -0.67002,2.11624 -0.55545,0.38806 -2.02115,1.96097 -3.2571,3.49537 -1.23595,1.53439 -2.60466,3.02238 -3.04156,3.30663 -0.76441,0.49733 -0.82135,0.45583 -1.50976,-1.10043 z m 12.90709,-0.13372 c -1.11312,-1.11312 -1.48434,-2.3962 -0.89776,-3.10299 0.65367,-0.78763 1.27845,-0.63807 2.08884,0.50001 0.8397,1.17925 0.96694,3.04217 0.22718,3.32604 -0.27632,0.10604 -0.91454,-0.21934 -1.41826,-0.72306 z m 4.77028,-1.04556 c -0.1972,-0.7142 -1.0381,-1.99556 -1.86867,-2.84746 l -1.51012,-1.54892 1.05834,-0.87532 c 1.46794,-1.21411 9.05687,-6.800095 10.86186,-7.995097 0.86546,-0.572985 1.85343,-0.941055 2.3673,-0.881945 0.77651,0.08932 0.90679,0.31233 1.08974,1.865338 0.22397,1.901272 0.59394,2.998611 1.01099,2.998611 0.46098,0 0.34178,-2.203801 -0.17305,-3.19937 -0.43588,-0.842902 -0.4298,-1.019581 0.0488,-1.416766 0.88384,-0.733524 1.27128,0.256048 0.97859,2.499469 -0.13922,1.067153 -0.22781,2.56111 -0.19685,3.3199 0.031,0.7588 -0.13864,1.61451 -0.37689,1.90158 -0.64316,0.77496 -8.59704,6.04034 -10.27688,6.80318 -2.13744,0.97065 -2.59944,0.87509 -3.01314,-0.6232 z m 23.3335,-0.32861 c -1.81827,-1.53084 -2.82839,-3.2259 -2.09102,-3.50886 1.32354,-0.50789 4.96989,2.4301 4.76782,3.84158 -0.16708,1.16708 -1.02155,1.06087 -2.6768,-0.33272 z m 35.3766,0.57392 c -0.77611,-0.37987 -2.47871,-1.18103 -3.78355,-1.78036 -3.19728,-1.46855 -3.97734,-2.73831 -4.69876,-7.648548 -0.25724,-1.750839 0.54698,-4.852783 1.75201,-6.757709 2.69484,-4.260016 9.28435,-7.555154 13.74449,-6.873047 5.87905,0.899105 6.41242,6.223076 1.48312,14.804204 -4.16952,7.25846 -5.39837,8.95946 -6.46651,8.95102 -0.34083,-0.003 -1.25469,-0.31569 -2.0308,-0.69556 z m -29.81513,-1.50441 c -0.7666,-2.98245 -0.94535,-3.2804 -2.66205,-4.43731 -0.95824,-0.64576 -1.79507,-1.40758 -1.85963,-1.69292 -0.0646,-0.28535 0.57044,-1.18686 1.41111,-2.003349 2.26841,-2.203182 19.78993,-17.064415 22.64824,-19.209573 2.74726,-2.061814 2.63463,-2.055507 6.04413,-0.338431 2.57076,1.294677 3.86302,1.389087 10.05416,0.734542 2.61938,-0.276928 5.35781,-0.40521 6.08542,-0.28507 1.31216,0.21666 1.32292,0.23204 1.32292,1.892519 0,0.920746 -0.0981,1.772164 -0.21796,1.892038 -0.11987,0.119875 -1.03269,-0.09345 -2.02847,-0.474053 -3.57699,-1.367178 -7.40297,-1.169555 -11.96078,0.617808 -4.26554,1.672751 -8.7987,6.060595 -10.86384,10.515606 l -1.30826,2.822222 -5.0666,3.459631 c -2.78663,1.9028 -6.38065,4.48249 -7.98672,5.73264 -1.60607,1.25016 -2.98902,2.27301 -3.07321,2.27301 -0.0842,0 -0.3265,-0.67469 -0.53846,-1.49931 z m 15.52692,-0.52474 c -0.46907,-1.0604 -0.65659,-1.99525 -0.51304,-2.55764 l 0.22624,-0.88637 1.0257,1.2214 c 0.9999,1.19067 1.24622,2.20317 0.81157,3.33586 -0.359,0.93552 -0.77695,0.63543 -1.55047,-1.11325 z m -50.7933,-7.347226 -0.87595,-0.861961 0.95555,-1.781394 0.95555,-1.781393 -0.68859,-1.812212 c -0.37872,-0.996717 -0.65266,-1.835517 -0.60876,-1.864 0.0439,-0.02848 1.1117,-0.53459 2.37288,-1.124683 1.26118,-0.590093 3.44597,-2.054044 4.85509,-3.253225 l 2.56203,-2.180329 1.62131,1.343707 c 3.16036,2.619232 3.35991,2.869037 3.24251,4.05918 -0.0947,0.959599 -0.64695,1.52375 -3.93621,4.020705 -3.71593,2.820851 -8.80753,6.162091 -9.32437,6.118891 -0.1403,-0.0117 -0.64926,-0.40921 -1.13104,-0.883286 z m 25.5904,-1.290556 c -0.30204,-0.431228 -0.54917,-1.245927 -0.54917,-1.810443 0,-0.564516 -0.33302,-1.565239 -0.74005,-2.223828 -1.16553,-1.885864 -0.59302,-2.521238 5.85534,-6.498272 2.61906,-1.615308 5.15604,-3.401438 15.63563,-11.008007 5.81085,-4.217786 5.54562,-4.087667 6.41976,-3.149385 0.40173,0.43121 1.12017,1.039394 1.59654,1.35152 0.47636,0.312125 0.86612,0.839024 0.86612,1.170886 0,0.562041 -1.89333,2.255858 -6.19157,5.539112 -5.79225,4.424481 -9.57653,7.480627 -12.82399,10.356527 -3.89028,3.445173 -8.58181,7.055941 -9.16788,7.055941 -0.19336,0 -0.59868,-0.352823 -0.90073,-0.784051 z M 115.14304,75.54837 c -0.91842,-0.97761 -0.88363,-2.435378 0.0624,-2.615709 0.72349,-0.137907 1.79614,2.015865 1.4514,2.914243 -0.28789,0.750233 -0.58327,0.691981 -1.51381,-0.298534 z m 22.98631,-7.251024 c -1.30306,-1.518338 -1.44359,-2.540606 -0.4815,-3.502689 0.36576,-0.365763 3.02482,-2.059316 5.90902,-3.763453 2.88421,-1.704136 8.73651,-5.39623 13.00512,-8.204652 4.26861,-2.808423 8.26153,-5.31739 8.87315,-5.575482 1.07391,-0.45317 1.14346,-0.428063 2.02847,0.732247 0.50404,0.66083 0.91643,1.442914 0.91643,1.737967 0,0.301647 -2.89525,2.498416 -6.61458,5.018807 -3.63802,2.465291 -7.96396,5.468388 -9.61319,6.673549 -1.64923,1.205161 -4.675,3.237393 -6.72394,4.516072 -2.04892,1.278678 -4.01822,2.648516 -4.3762,3.044085 -0.91942,1.015945 -1.60689,0.856836 -2.92278,-0.676451 z m -4.30911,-6.695031 c -0.50655,-0.946481 -0.45614,-2.29763 0.13883,-3.721591 0.40281,-0.964067 1.02265,-1.466842 3.0868,-2.503829 4.03934,-2.029277 14.45624,-7.895434 19.62171,-11.049752 2.58043,-1.575751 5.78386,-3.415004 7.11871,-4.087228 4.12386,-2.076743 6.83888,-2.013446 4.84749,0.113014 -0.48492,0.51781 -1.21939,1.61524 -1.63216,2.438735 -0.41277,0.823495 -0.8668,1.46673 -1.00895,1.429411 -0.64745,-0.169971 -2.43743,0.793471 -8.18889,4.407587 -10.33183,6.492343 -13.30478,8.305628 -16.69129,10.180507 -1.78625,0.988923 -3.92804,2.175472 -4.75954,2.636776 -1.83016,1.01534 -2.06524,1.029854 -2.53271,0.15637 z m 1.45275,-2.226917 c -0.36516,-0.365161 -1.11239,-0.07791 -1.11239,0.427629 0,0.164412 0.32799,0.21316 0.72887,0.108328 0.47547,-0.124338 0.6088,-0.310671 0.38352,-0.535957 z m 47.93928,-2.783956 c -3.88011,-0.643262 -8.59206,-3.98585 -10.28361,-7.295042 -1.25382,-2.452859 -1.21,-6.859815 0.096,-9.651287 1.04119,-2.225524 3.27481,-4.834103 5.1109,-5.968867 5.57843,-3.447661 13.68967,-2.379126 18.15177,2.391226 2.23002,2.384066 2.9608,4.457826 2.9608,8.401929 0,2.689832 -0.14051,3.471492 -0.91953,5.115278 -2.74761,5.797647 -7.92735,8.19858 -15.1163,7.006763 z m 6.51721,-5.572473 c 2.55577,-1.258197 4.13002,-2.943442 4.92266,-5.269737 0.73037,-2.143511 0.67643,-3.086591 -0.29596,-5.174803 -1.57966,-3.392294 -4.61284,-5.100861 -9.05545,-5.100861 -2.97397,0 -3.88339,0.2717 -6.28324,1.87719 -1.703,1.139295 -3.58269,4.50684 -3.57964,6.413087 0.005,3.119852 1.93965,5.847182 5.38446,7.590544 1.95421,0.988991 2.44467,1.093827 4.42182,0.945157 1.5275,-0.114859 2.93192,-0.515823 4.48535,-1.280577 z M 183.3731,48.34892 c -2.50728,-0.887045 -3.72908,-3.166737 -3.20227,-5.97492 0.41626,-2.21883 3.68757,-4.07691 6.3112,-3.584713 0.81331,0.152577 1.67041,0.712053 2.50348,1.634161 1.09756,1.214871 1.26676,1.637478 1.26676,3.164009 0,1.527225 -0.16906,1.948982 -1.26946,3.166992 -0.74123,0.820448 -1.80548,1.55402 -2.55764,1.762937 -1.55011,0.430554 -1.32357,0.443058 -3.05207,-0.168466 z m 21.19047,3.743721 c -0.10747,-0.173893 0.0565,-1.00776 0.36448,-1.853038 0.43345,-1.189806 0.51766,-2.37336 0.37291,-5.241035 -0.27783,-5.504002 0.40708,-6.938918 4.81924,-10.096561 1.323,-0.946822 3.94237,-2.841724 5.82084,-4.210892 5.83699,-4.254445 13.45396,-9.328659 14.00336,-9.328659 0.44476,0 0.52453,0.965691 0.52453,6.350103 v 6.350103 l -1.81043,0.970036 c -0.99574,0.53352 -3.73418,2.236327 -6.08542,3.784016 -2.35124,1.547688 -6.64983,4.170443 -9.55242,5.828343 -5.11773,2.923142 -5.28615,3.056304 -5.56539,4.400284 -0.29334,1.411876 -1.01989,2.466281 -2.0964,3.042412 -0.35258,0.188695 -0.68046,0.19071 -0.7953,0.0049 z m 6.85536,-3.370046 c 0,-0.08609 1.62719,-1.066436 3.61597,-2.178546 1.98879,-1.11211 5.14384,-3.022577 7.01122,-4.245483 3.39726,-2.224781 6.11464,-3.70557 7.6556,-4.171774 0.73635,-0.222778 0.80855,-0.147695 0.70556,0.733776 -0.0919,0.786714 -0.35767,1.044492 -1.33657,1.296519 -0.67201,0.173013 -1.62519,0.579062 -2.11818,0.902331 -1.59544,1.046179 -2.294,1.469413 -2.8336,1.716795 -0.29104,0.133429 -0.73894,0.449918 -0.99534,0.70331 -0.25639,0.253391 -0.67372,0.460711 -0.92739,0.460711 -0.25368,0 -1.34835,0.534196 -2.43261,1.187101 -1.08426,0.652905 -2.49255,1.37473 -3.12954,1.604054 -0.637,0.229324 -1.91232,0.806378 -2.83405,1.282343 -1.59039,0.821245 -2.38107,1.056637 -2.38107,0.708863 z M 201.15291,34.708736 c -0.65959,-1.002741 -1.42794,-2.175073 -1.70744,-2.605182 -0.44977,-0.69213 -0.43708,-0.890533 0.11041,-1.726096 0.34022,-0.519243 1.75952,-1.666255 3.15401,-2.548915 4.6863,-2.966258 17.26967,-11.263365 21.05626,-13.883876 1.45521,-1.007077 3.22355,-2.384466 3.92964,-3.060864 2.04962,-1.9634342 2.57565,-1.5811782 2.69977,1.961885 0.063,1.799292 -0.05,3.125108 -0.29128,3.415792 -0.21685,0.261297 -3.43821,2.496412 -7.15857,4.966922 -8.58129,5.698428 -13.79655,9.557542 -17.25593,12.768802 -1.5018,1.394083 -2.86713,2.534697 -3.03407,2.534697 -0.16695,0 -0.8432,-0.820424 -1.5028,-1.823165 z m -6.50856,-6.253053 c -0.43567,-0.409627 -3.73639,-1.096004 -5.27057,-1.096004 -0.6581,0 -1.29321,-0.156406 -1.41135,-0.347569 -0.49774,-0.805363 2.7826,-3.324821 8.99261,-6.906743 3.58952,-2.070425 10.05192,-5.89061 14.36091,-8.489299 l 7.83452,-4.7248902 3.5283,-0.0845 c 2.9456,-0.07055 3.62914,0.01607 4.13892,0.524462 0.33585,0.334929 0.54071,0.653965 0.45524,0.708968 -0.0855,0.055 -1.18726,0.612262 -2.44844,1.238352 -1.26118,0.62609 -4.43618,2.7278732 -7.05556,4.6706292 -7.88963,5.851639 -21.58206,14.821701 -22.62471,14.821701 -0.0906,0 -0.31554,-0.141798 -0.49987,-0.315107 z"
       id="path1" /></g></svg>
